<svg width="1280" height="760" viewBox="0 0 1280 760" fill="none" xmlns="http://www.w3.org/2000/svg">
  <defs>
    <style>
      .bg { fill: #f8fafc; }
      .panel { fill: #ffffff; stroke: #cbd5e1; stroke-width: 1.5; rx: 18; }
      .dark { fill: #e2e8f0; }
      .light { fill: #f8fafc; }
      .title { font: 700 26px Inter, Arial, sans-serif; fill: #0f172a; }
      .label { font: 700 15px Inter, Arial, sans-serif; fill: #0f172a; }
      .small { font: 500 12px Inter, Arial, sans-serif; fill: #475569; }
      .muted { font: 500 11px Inter, Arial, sans-serif; fill: #64748b; }
      .btn { fill: #f1f5f9; stroke: #94a3b8; stroke-width: 1; rx: 12; }
      .green { fill: #dcfce7; stroke: #16a34a; stroke-width: 1; rx: 12; }
      .red { fill: #fee2e2; stroke: #dc2626; stroke-width: 1; rx: 12; }
    </style>
  </defs>
  <rect width="1280" height="760" class="bg"/>
  <text x="40" y="50" class="title">Live Game Frontend Wireframe</text>
  <rect x="40" y="80" width="1200" height="58" class="panel"/>
  <text x="70" y="115" class="label">Chess Platform</text>
  <text x="230" y="115" class="small">Play</text>
  <text x="280" y="115" class="small">Puzzles</text>
  <text x="350" y="115" class="small">Learn</text>
  <text x="1080" y="115" class="small">Profile / Settings</text>

  <rect x="40" y="165" width="760" height="540" class="panel"/>
  <rect x="70" y="190" width="700" height="70" class="panel"/>
  <text x="95" y="220" class="label">Opponent: alex_2400</text>
  <text x="95" y="240" class="small">Rating 2412 • Connected</text>
  <rect x="610" y="205" width="130" height="40" class="red"/>
  <text x="645" y="231" class="label">02:14</text>

  <g transform="translate(115 290)">
    <rect width="480" height="360" rx="10" fill="#ffffff" stroke="#334155" stroke-width="2"/>
    <g>
      <rect x="0" y="0" width="60" height="45" class="light"/><rect x="60" y="0" width="60" height="45" class="dark"/><rect x="120" y="0" width="60" height="45" class="light"/><rect x="180" y="0" width="60" height="45" class="dark"/><rect x="240" y="0" width="60" height="45" class="light"/><rect x="300" y="0" width="60" height="45" class="dark"/><rect x="360" y="0" width="60" height="45" class="light"/><rect x="420" y="0" width="60" height="45" class="dark"/>
      <rect x="0" y="45" width="60" height="45" class="dark"/><rect x="60" y="45" width="60" height="45" class="light"/><rect x="120" y="45" width="60" height="45" class="dark"/><rect x="180" y="45" width="60" height="45" class="light"/><rect x="240" y="45" width="60" height="45" class="dark"/><rect x="300" y="45" width="60" height="45" class="light"/><rect x="360" y="45" width="60" height="45" class="dark"/><rect x="420" y="45" width="60" height="45" class="light"/>
      <rect x="0" y="90" width="60" height="45" class="light"/><rect x="60" y="90" width="60" height="45" class="dark"/><rect x="120" y="90" width="60" height="45" class="light"/><rect x="180" y="90" width="60" height="45" class="dark"/><rect x="240" y="90" width="60" height="45" class="light"/><rect x="300" y="90" width="60" height="45" class="dark"/><rect x="360" y="90" width="60" height="45" class="light"/><rect x="420" y="90" width="60" height="45" class="dark"/>
      <rect x="0" y="135" width="60" height="45" class="dark"/><rect x="60" y="135" width="60" height="45" class="light"/><rect x="120" y="135" width="60" height="45" class="dark"/><rect x="180" y="135" width="60" height="45" class="light"/><rect x="240" y="135" width="60" height="45" class="dark"/><rect x="300" y="135" width="60" height="45" class="light"/><rect x="360" y="135" width="60" height="45" class="dark"/><rect x="420" y="135" width="60" height="45" class="light"/>
      <rect x="0" y="180" width="60" height="45" class="light"/><rect x="60" y="180" width="60" height="45" class="dark"/><rect x="120" y="180" width="60" height="45" class="light"/><rect x="180" y="180" width="60" height="45" class="dark"/><rect x="240" y="180" width="60" height="45" class="light"/><rect x="300" y="180" width="60" height="45" class="dark"/><rect x="360" y="180" width="60" height="45" class="light"/><rect x="420" y="180" width="60" height="45" class="dark"/>
      <rect x="0" y="225" width="60" height="45" class="dark"/><rect x="60" y="225" width="60" height="45" class="light"/><rect x="120" y="225" width="60" height="45" class="dark"/><rect x="180" y="225" width="60" height="45" class="light"/><rect x="240" y="225" width="60" height="45" class="dark"/><rect x="300" y="225" width="60" height="45" class="light"/><rect x="360" y="225" width="60" height="45" class="dark"/><rect x="420" y="225" width="60" height="45" class="light"/>
      <rect x="0" y="270" width="60" height="45" class="light"/><rect x="60" y="270" width="60" height="45" class="dark"/><rect x="120" y="270" width="60" height="45" class="light"/><rect x="180" y="270" width="60" height="45" class="dark"/><rect x="240" y="270" width="60" height="45" class="light"/><rect x="300" y="270" width="60" height="45" class="dark"/><rect x="360" y="270" width="60" height="45" class="light"/><rect x="420" y="270" width="60" height="45" class="dark"/>
      <rect x="0" y="315" width="60" height="45" class="dark"/><rect x="60" y="315" width="60" height="45" class="light"/><rect x="120" y="315" width="60" height="45" class="dark"/><rect x="180" y="315" width="60" height="45" class="light"/><rect x="240" y="315" width="60" height="45" class="dark"/><rect x="300" y="315" width="60" height="45" class="light"/><rect x="360" y="315" width="60" height="45" class="dark"/><rect x="420" y="315" width="60" height="45" class="light"/>
    </g>
    <text x="25" y="32" class="label">♜</text><text x="85" y="32" class="label">♞</text><text x="145" y="32" class="label">♝</text><text x="205" y="32" class="label">♛</text><text x="265" y="32" class="label">♚</text><text x="325" y="32" class="label">♝</text><text x="385" y="32" class="label">♞</text><text x="445" y="32" class="label">♜</text>
    <text x="25" y="352" class="label">♖</text><text x="85" y="352" class="label">♘</text><text x="145" y="352" class="label">♗</text><text x="205" y="352" class="label">♕</text><text x="265" y="352" class="label">♔</text><text x="325" y="352" class="label">♗</text><text x="385" y="352" class="label">♘</text><text x="445" y="352" class="label">♖</text>
  </g>

  <rect x="620" y="420" width="130" height="40" class="green"/>
  <text x="655" y="446" class="label">03:02</text>
  <text x="620" y="486" class="label">You: khanh_1800</text>
  <text x="620" y="506" class="small">Rating 1840 • Server synced</text>
  <rect x="620" y="535" width="80" height="36" class="btn"/><text x="642" y="558" class="small">Draw</text>
  <rect x="710" y="535" width="80" height="36" class="btn"/><text x="730" y="558" class="small">Resign</text>

  <rect x="835" y="165" width="405" height="540" class="panel"/>
  <text x="865" y="205" class="label">Move List</text>
  <rect x="865" y="225" width="340" height="170" class="panel"/>
  <text x="890" y="255" class="small">1. e4 c5</text>
  <text x="890" y="280" class="small">2. Nf3 d6</text>
  <text x="890" y="305" class="small">3. d4 cxd4</text>
  <text x="890" y="330" class="small">4. Nxd4 Nf6</text>
  <text x="890" y="355" class="small">5. Nc3 a6</text>

  <text x="865" y="430" class="label">Connection State</text>
  <rect x="865" y="450" width="340" height="70" class="green"/>
  <text x="890" y="480" class="label">Healthy</text>
  <text x="890" y="500" class="small">lastSeenSeq=10 • epoch=4 • clock corrected +18ms</text>

  <text x="865" y="555" class="label">Game Controls</text>
  <rect x="865" y="575" width="100" height="40" class="btn"/><text x="895" y="600" class="small">Chat</text>
  <rect x="980" y="575" width="100" height="40" class="btn"/><text x="1000" y="600" class="small">Settings</text>
  <rect x="1095" y="575" width="110" height="40" class="btn"/><text x="1118" y="600" class="small">Report</text>

  <text x="865" y="650" class="muted">Frontend rule: local move preview is not committed until server sends MOVE_COMMITTED.</text>
</svg>
